HIERARCHY
ROOT pelvis
{
	OFFSET 0.000000 0.000000 0.000000
	CHANNELS 6 Xposition Yposition Zposition Zrotation Xrotation Yrotation
	JOINT lfemur
	{
		OFFSET 11.446000 0.000000 0.000000
		CHANNELS 3 Zrotation Xrotation Yrotation
		JOINT ltibia
		{
			OFFSET 0.000000 -42.030400 0.000000
			CHANNELS 3 Zrotation Xrotation Yrotation
			JOINT lfoot
			{
				OFFSET 0.000000 -39.930200 0.000000
				CHANNELS 3 Zrotation Xrotation Yrotation
				JOINT ltoes
				{
					OFFSET 0.000000 0.000000 11.775800
					CHANNELS 3 Zrotation Xrotation Yrotation
					End Site
					{
					    OFFSET 0.000000 0.000000 5.000000
					}
				}
			}
		}
	}
	JOINT rfemur
	{
		OFFSET -11.446000 0.000000 0.000000
		CHANNELS 3 Zrotation Xrotation Yrotation
		JOINT rtibia
		{
			OFFSET 0.000000 -42.030400 0.000000
			CHANNELS 3 Zrotation Xrotation Yrotation
			JOINT rfoot
			{
				OFFSET 0.000000 -39.930200 0.000000
				CHANNELS 3 Zrotation Xrotation Yrotation
				JOINT rtoes
				{
					OFFSET 0.000000 0.000000 11.775800
					CHANNELS 3 Zrotation Xrotation Yrotation
					End Site
					{
					    OFFSET 0.000000 0.000000 5.000000
					}
				}
			}
		}
	}
	JOINT thorax
	{
		OFFSET 0.000000 11.255600 -5.000000
		CHANNELS 3 Zrotation Xrotation Yrotation
		JOINT head
		{
			OFFSET 0.000000 43.799300 0.000000
			CHANNELS 3 Zrotation Xrotation Yrotation
			End Site
			{
			    OFFSET 0.000000 5.000000 0.000000
			}
		}
		JOINT lclavicle
		{
			OFFSET 0.000000 39.863000 0.000000
			CHANNELS 3 Zrotation Xrotation Yrotation
			JOINT lhumerus
			{
				OFFSET 17.380600 4.958300 0.000000
				CHANNELS 3 Zrotation Xrotation Yrotation
				JOINT lradius
				{
					OFFSET 0.000000 -27.561300 0.000000
					CHANNELS 3 Zrotation Xrotation Yrotation
					JOINT lhand
					{
						OFFSET 0.000000 -26.933000 0.000000
						CHANNELS 3 Zrotation Xrotation Yrotation
						End Site
						{
						    OFFSET 0.000000 -5.000000 0.000000
						}
					}
				}
			}
		}
		JOINT rclavicle
		{
			OFFSET 0.000000 39.863000 0.000000
			CHANNELS 3 Zrotation Xrotation Yrotation
			JOINT rhumerus
			{
				OFFSET -17.380600 4.958300 0.000000
				CHANNELS 3 Zrotation Xrotation Yrotation
				JOINT rradius
				{
					OFFSET 0.000000 -27.561300 0.000000
					CHANNELS 3 Zrotation Xrotation Yrotation
					JOINT rhand
					{
						OFFSET 0.000000 -26.933000 0.000000
						CHANNELS 3 Zrotation Xrotation Yrotation
						End Site
						{
						    OFFSET 0.000000 -5.000000 0.000000
						}
					}
				}
			}
		}
	}
}
MOTION
Frames:	20
Frame Time:	0.0333333
63.684700 87.132400 6.384600 -3.845827 -2.664838 -88.496202 -4.091867 -0.773594 -2.235733 0.000000 19.721028 -0.000000 -0.000000 0.976417 8.310432 -0.000000 -1.456021 -0.000000 -1.180996 -2.197825 -3.781249 -0.000000 21.541798 0.000000 -0.000000 -0.671357 -3.493702 -0.000000 -29.547176 0.000000 -3.667100 4.727675 -2.017033 18.263800 25.095222 -3.985417 7.610516 -0.000000 2.413084 80.501482 1.642857 65.206144 0.000000 -13.402560 -60.077934 10.157559 1.924065 -0.000000 -9.579740 -0.000000 0.310192 -76.918463 10.811337 -67.991554 -0.000001 -19.194483 42.335177 -8.630376 -0.458359 0.000000 
63.539500 87.126200 6.511800 -3.930074 -2.584035 -88.827579 -4.172737 -0.633669 -2.332644 -0.000000 19.848011 -0.000000 -0.000000 0.831844 8.654018 0.000000 -1.451327 -0.000000 -1.207524 -2.021723 -3.684592 0.000000 21.433864 -0.000000 -0.000000 -0.654854 -3.306047 -0.000000 -29.547592 -0.000000 -3.484322 4.733587 -1.784499 18.189395 25.123804 -3.967454 7.484922 -0.000000 2.638347 81.021705 1.460809 65.340674 -0.000000 -13.427930 -60.663275 10.422376 2.056831 -0.000000 -9.957888 0.000000 0.348167 -76.536961 10.514471 -67.918886 0.000001 -19.287127 42.649598 -8.644449 -0.454962 -0.000000 
63.371000 87.121800 6.601000 -3.972339 -2.468709 -89.163530 -4.163978 -0.618924 -2.182983 -0.000000 20.173282 0.000000 0.000000 0.638758 8.832874 -0.000000 -1.447493 -0.000000 -1.174818 -1.857887 -3.596403 0.000000 21.311479 0.000000 0.000000 -0.613966 -3.145855 -0.000000 -29.548415 -0.000000 -3.313960 4.695504 -1.622513 18.063768 25.340829 -3.843158 7.433655 -0.000000 2.634685 81.273241 1.791463 64.775532 -0.000001 -13.870902 -60.244858 10.643126 1.994383 -0.000000 -10.367861 0.000000 0.489830 -76.193845 10.110246 -68.381875 0.000000 -19.382093 42.527834 -8.659632 -0.449015 0.000000 
63.221500 87.129200 6.674400 -3.969349 -2.400747 -89.383543 -4.154333 -0.505324 -2.046567 -0.000000 20.186835 -0.000000 -0.000000 0.596106 8.884524 0.000000 -1.446324 -0.000000 -1.184124 -1.705810 -3.582746 0.000000 21.138835 -0.000000 0.000000 -0.537503 -2.960802 0.000000 -29.548743 0.000000 -3.212531 4.573441 -1.453130 17.916776 25.643407 -3.656884 7.647014 0.000000 2.888091 81.402467 1.247900 65.721344 -0.000001 -13.599325 -60.710809 10.758126 1.932868 -0.000000 -10.513212 0.000000 0.589736 -76.217031 10.013479 -68.142576 0.000001 -19.545048 43.418768 -8.835383 -0.389779 0.000000 
63.102900 87.127200 6.722500 -3.913069 -2.373946 -89.529329 -4.147678 -0.457397 -1.895976 -0.000000 20.173673 -0.000000 -0.000000 0.564718 8.856994 0.000000 -1.443751 -0.000000 -1.181740 -1.675232 -3.419417 -0.000000 21.083227 -0.000000 -0.000000 -0.599946 -2.971533 -0.000000 -29.550219 -0.000000 -3.215293 4.440540 -1.358678 17.921645 25.705160 -3.489909 7.823586 0.000000 2.907707 81.414955 1.366944 64.937964 -0.000000 -13.808270 -60.229999 10.536526 2.053424 -0.000000 -10.651164 0.000000 0.601260 -76.244500 9.859142 -67.961756 0.000000 -19.877487 42.935771 -8.560889 -0.482666 -0.000000 
63.016700 87.139200 6.760100 -3.845181 -2.366918 -89.572181 -4.160731 -0.352567 -1.843293 -0.000000 19.949887 -0.000000 -0.000000 0.567029 8.865302 -0.000000 -1.443543 0.000000 -1.211926 -1.670506 -3.449258 0.000000 21.030594 -0.000000 0.000000 -0.534113 -2.918266 -0.000000 -29.549553 0.000000 -3.232913 4.365749 -1.352686 17.870506 25.735537 -3.316627 7.834314 -0.000000 2.660799 81.502227 1.843334 64.449813 -0.000002 -14.057527 -59.824636 10.391364 1.852157 0.000000 -10.654711 -0.000000 0.860924 -76.363277 10.221811 -67.744608 0.000001 -20.039908 43.234841 -8.965930 -0.345721 0.000000 
62.953500 87.149800 6.768000 -3.784452 -2.357413 -89.485438 -4.158263 -0.303335 -1.926475 0.000000 19.809535 -0.000000 0.000000 0.588977 8.889684 0.000000 -1.447526 -0.000000 -1.182614 -1.612732 -3.366824 -0.000000 20.902757 0.000000 -0.000000 -0.508199 -3.007960 0.000000 -29.549645 -0.000000 -3.325659 4.369510 -1.369275 17.922311 25.604181 -3.140282 8.052741 0.000000 2.387403 81.366146 2.134594 65.052076 -0.000000 -14.121087 -60.439171 10.286956 1.770520 0.000000 -10.566937 -0.000000 0.681281 -76.668824 10.143886 -67.593828 0.000000 -19.882175 42.532467 -9.134803 -0.289237 -0.000000 
62.917100 87.166000 6.750200 -3.642664 -2.301276 -89.311355 -4.075059 -0.407899 -2.015312 -0.000000 19.758041 -0.000000 -0.000000 0.582777 8.792134 -0.000000 -1.447668 0.000000 -1.107752 -1.584778 -3.504399 -0.000000 20.658441 -0.000000 0.000000 -0.414911 -3.058633 0.000000 -29.549781 0.000000 -3.348276 4.372548 -1.436531 17.862482 25.471063 -3.061434 8.007647 0.000000 2.769579 81.552600 1.489768 65.148066 -0.000002 -13.912749 -60.542672 10.642585 2.026713 -0.000000 -10.555348 -0.000000 0.465853 -76.682259 10.161631 -67.750687 0.000001 -19.904752 42.515237 -9.011950 -0.330650 0.000000 
62.888400 87.190800 6.719300 -3.470894 -2.218398 -89.202162 -3.950151 -0.524469 -1.982951 -0.000000 19.654906 -0.000000 0.000000 0.631533 8.694273 -0.000000 -1.450939 -0.000000 -0.980342 -1.556279 -3.507307 -0.000000 20.326301 -0.000000 0.000000 -0.276043 -3.124895 0.000000 -29.549348 -0.000000 -3.322631 4.374473 -1.514250 17.716640 25.455615 -2.994163 7.898685 0.000000 3.042096 81.609677 1.047688 65.410843 0.000000 -13.836273 -60.939572 10.637893 2.155231 -0.000000 -10.647098 0.000000 0.283743 -76.424455 10.128828 -67.878789 -0.000002 -20.021027 43.008710 -9.177599 -0.274682 0.000000 
62.859300 87.212600 6.680200 -3.366782 -2.153741 -89.102624 -3.871662 -0.562600 -2.158240 -0.000000 19.547491 0.000000 0.000000 0.670980 8.726149 -0.000000 -1.449687 -0.000000 -0.880727 -1.477098 -3.575502 0.000000 20.005246 -0.000000 -0.000000 -0.138717 -3.172351 -0.000000 -29.549430 -0.000000 -3.357043 4.353571 -1.569725 17.651912 25.514648 -2.925559 7.808531 -0.000000 2.885846 81.626232 1.142665 65.349143 -0.000000 -13.781215 -60.787787 10.731851 1.989328 -0.000000 -10.652555 0.000000 0.285181 -76.283843 10.239830 -67.892468 -0.000001 -19.967143 42.724875 -9.374385 -0.207473 0.000000 
62.846400 87.241800 6.606600 -3.224967 -2.069802 -89.092891 -3.757436 -0.565585 -2.316759 0.000000 19.307494 -0.000000 -0.000000 0.655710 8.845251 0.000000 -1.450499 -0.000000 -0.741091 -1.461875 -3.599826 -0.000000 19.693740 -0.000000 0.000000 0.026243 -3.177883 -0.000000 -29.549781 -0.000000 -3.364919 4.368372 -1.571910 17.383985 25.582876 -2.620315 7.569613 -0.000000 2.570210 81.623082 1.698461 64.835178 0.000001 -13.989228 -60.383281 10.670712 1.901134 0.000000 -10.553091 -0.000000 0.172147 -76.200333 10.120125 -68.067475 0.000000 -19.881583 42.694201 -9.056628 -0.314837 -0.000000 
62.874500 87.249400 6.536800 -3.046485 -2.049660 -89.250018 -3.729413 -0.668243 -2.449713 -0.000000 19.173562 -0.000000 0.000000 0.729568 8.991540 -0.000000 -1.449848 -0.000000 -0.698550 -1.693489 -3.601963 -0.000000 19.721777 -0.000000 -0.000000 0.020635 -3.010574 0.000000 -29.549382 0.000000 -3.434924 4.385572 -1.495687 17.212610 25.476952 -2.597880 7.413779 0.000000 2.627078 81.427738 1.917999 64.491277 -0.000001 -14.213271 -60.391519 10.434865 1.856854 0.000000 -10.360378 -0.000000 0.173355 -76.102766 10.093336 -68.070978 -0.000001 -19.898002 43.191121 -9.603939 -0.130186 0.000000 
62.920700 87.243400 6.449000 -2.857974 -1.993820 -89.333505 -3.628817 -0.876326 -2.493486 -0.000000 19.175683 -0.000000 -0.000000 0.648437 9.108788 0.000000 -1.451681 -0.000000 -0.593931 -1.913516 -3.602749 -0.000000 19.675071 -0.000000 -0.000000 0.067822 -2.982221 -0.000000 -29.549385 -0.000000 -3.537783 4.462709 -1.518239 17.190074 25.343328 -2.334149 7.506903 -0.000000 2.848993 81.102435 1.710099 65.818889 0.000001 -13.866865 -61.373817 10.758097 1.500936 0.000000 -9.848627 -0.000000 0.370496 -76.205422 10.439608 -67.241979 -0.000000 -20.005843 42.656308 -9.839163 -0.051950 -0.000000 
63.002100 87.243400 6.354300 -2.593793 -1.972093 -89.389133 -3.563558 -1.202796 -2.584782 -0.000000 19.199319 -0.000000 0.000000 0.713316 9.186691 0.000000 -1.452626 -0.000000 -0.518262 -2.293360 -3.576262 0.000000 19.783184 -0.000000 -0.000000 0.078920 -2.957799 -0.000000 -29.549163 -0.000000 -3.620290 4.597527 -1.572598 16.963641 25.217026 -2.094888 7.283537 0.000000 2.974651 80.657887 1.910286 66.005579 -0.000001 -14.068901 -61.612789 11.653816 1.703684 0.000000 -9.021749 0.000000 0.690410 -76.574332 10.918557 -66.771763 0.000001 -20.216161 42.319422 -9.603375 -0.131943 -0.000000 
63.113600 87.220500 6.205100 -2.294296 -1.742768 -89.413454 -3.192368 -1.982477 -2.177052 -0.000000 20.011222 -0.000000 0.000000 0.461802 8.870429 -0.000000 -1.457450 0.000000 -0.178534 -2.639062 -3.468951 -0.000000 19.686692 -0.000000 -0.000000 0.213627 -3.031511 -0.000000 -29.549129 0.000000 -3.436193 4.744738 -1.652530 16.696773 25.158318 -1.994407 6.417142 -0.000000 2.250165 80.077445 3.663248 64.184298 0.000002 -15.284203 -60.258014 12.612768 1.563662 -0.000000 -8.357294 -0.000000 0.861749 -75.823697 11.278351 -66.372092 0.000002 -21.430858 42.434774 -10.361091 0.121826 0.000000 
63.258500 87.244700 6.094700 -1.950358 -1.834958 -89.436390 -3.226100 -2.277740 -2.326126 0.000000 19.714290 -0.000000 -0.000000 0.741279 8.958058 0.000000 -1.463033 -0.000000 -0.221860 -3.099525 -3.610654 -0.000000 19.729630 0.000000 0.000000 0.204322 -2.925438 0.000000 -29.548381 0.000000 -3.650824 5.045545 -1.798285 16.567834 24.952590 -1.838730 5.414763 -0.000000 2.572949 78.631332 4.231919 62.701317 0.000001 -16.925465 -60.220954 13.992818 1.430125 0.000000 -6.093884 0.000000 1.037606 -76.403700 11.856769 -63.848182 -0.000002 -22.633666 41.505746 -11.583340 0.531995 -0.000000 
63.480800 87.235800 5.965300 -1.482438 -1.848458 -89.258953 -3.162182 -3.056100 -2.442872 -0.000000 19.994155 -0.000000 -0.000000 0.876643 8.833830 0.000000 -1.459846 0.000000 -0.193878 -3.766519 -3.876079 -0.000000 19.868717 0.000000 0.000000 0.206164 -2.776726 0.000000 -29.548456 -0.000000 -3.778459 5.534452 -2.049354 16.286443 24.700291 -1.323368 3.661294 0.000000 2.856396 76.276435 5.011717 61.815902 0.000001 -20.560833 -58.201666 14.205088 0.351912 -0.000000 -3.087375 0.000000 0.644002 -76.889553 11.855501 -60.793018 -0.000000 -24.310565 39.748245 -11.758185 0.589123 0.000000 
63.790500 87.194600 5.805400 -0.836106 -1.840850 -89.183725 -3.043854 -4.238163 -2.350141 0.000000 20.612947 0.000000 0.000000 0.806361 8.739479 0.000000 -1.464760 -0.000000 -0.080646 -4.798645 -3.771918 -0.000000 20.239129 0.000000 0.000000 0.171404 -2.890449 -0.000000 -29.548323 -0.000000 -3.949398 5.889867 -2.208869 16.229194 24.198503 -1.167290 1.003278 -0.000000 3.009569 72.899428 6.407182 59.897478 -0.000001 -26.788651 -53.372458 15.333440 -0.282322 0.000000 0.700810 0.000000 1.047878 -76.733005 13.214130 -56.362795 0.000001 -27.384585 37.379851 -12.022658 0.675115 0.000000 
64.174500 87.116100 5.681500 -0.223021 -1.863709 -88.930740 -3.026732 -5.643720 -2.571330 0.000000 21.632791 -0.000000 0.000000 0.731286 8.610333 -0.000000 -1.463936 -0.000000 -0.091420 -5.988850 -4.044558 0.000000 20.944967 -0.000000 0.000000 -0.027034 -2.867596 -0.000000 -29.548019 0.000000 -4.042125 6.672683 -2.491385 15.891985 23.686757 -0.279417 -2.242422 0.000000 4.136175 68.715710 6.947422 56.238551 0.000001 -34.185360 -47.876042 15.688201 -1.277302 0.000000 4.101523 -0.000000 0.306731 -75.446575 12.811565 -51.864524 -0.000000 -30.053344 34.754633 -11.822459 0.602489 -0.000000 
64.693500 86.953100 5.485600 0.492465 -1.919565 -88.559031 -2.970910 -7.506256 -2.599319 0.000000 23.139267 -0.000000 -0.000000 0.568418 8.214799 0.000000 -1.468004 -0.000000 -0.066767 -7.721974 -4.126062 -0.000000 22.379775 -0.000000 0.000000 -0.433769 -3.165694 -0.000000 -29.547036 -0.000000 -4.330703 7.400856 -2.663431 16.108914 23.140931 0.084290 -5.213130 0.000000 4.171760 63.155927 8.537402 51.982072 0.000000 -41.478948 -45.129514 16.515946 -2.174631 0.000000 7.588556 0.000000 0.102570 -73.053122 13.019952 -47.803283 -0.000001 -32.892015 33.520097 -10.378545 0.110461 0.000000 
